<?xml version="1.0" standalone="no"?>
<!DOCTYPE svg PUBLIC "-//W3C//DTD SVG 20010904//EN"
 "http://www.w3.org/TR/2001/REC-SVG-20010904/DTD/svg10.dtd">
<svg version="1.0" xmlns="http://www.w3.org/2000/svg"
 width="512.000000pt" height="512.000000pt" viewBox="0 0 512.000000 512.000000"
 preserveAspectRatio="xMidYMid meet">

<g transform="translate(0.000000,512.000000) scale(0.100000,-0.100000)"
fill="#000000" stroke="none">
<path d="M2470 4913 c-415 -13 -857 -155 -1205 -388 -145 -97 -229 -165 -349
-283 -388 -380 -619 -844 -692 -1387 -19 -145 -19 -447 0 -593 92 -679 454
-1268 1016 -1651 304 -207 677 -346 1049 -391 132 -15 435 -13 566 4 1002 132
1804 873 2009 1855 36 171 47 283 47 481 0 198 -11 310 -47 481 -93 443 -303
837 -621 1163 -467 478 -1095 729 -1773 709z m203 -943 c29 -11 72 -38 96 -62
154 -147 117 -396 -73 -496 -44 -23 -63 -27 -136 -27 -73 0 -92 4 -136 27
-190 100 -227 349 -73 496 81 79 211 104 322 62z m89 -1767 l3 -768 103 -3
102 -3 0 -99 0 -100 -410 0 -410 0 0 100 0 99 103 3 102 3 3 663 2 662 -105 0
-105 0 0 105 0 105 305 0 305 0 2 -767z"/>
</g>
</svg>
